# xmcd CD database file
#
# Track frame offsets:
#	150
#	12557
#	20098
#	27142
#	33495
#	40817
#	52403
#	64432
#	71820
#	74639
#	85579
#	95527
#	108438
#	121126
#	129188
#	140726
#	147477
#	160139
#	167818
#	177113
#	187105
#
# Disc length: 2584 seconds
#
# Revision: 0
# Processed by: cddbd v1.5.2PL0 Copyright (c) Steve Scherf et al.
# Submitted via: CDex 1.70beta2
#
DISCID=3d0a1615
DTITLE=Kendor and Doug Beach - Jazz Charts Volume 20 CD2
DYEAR=2000
DGENRE=Jazz
TTITLE0=Sweet Spot
TTITLE1=Motor Mouth
TTITLE2=On the Flip Side
TTITLE3=Playing Catch Up
TTITLE4=Estero Sunset
TTITLE5=Blue Chimes
TTITLE6=On the Prowl
TTITLE7=Luck of the Draw
TTITLE8=Introduction
TTITLE9=Forgotten Dreams
TTITLE10=That's What I Thought
TTITLE11=A Blues for Dave
TTITLE12=Duke City Stomp
TTITLE13=The Chili Pepper That Got Away
TTITLE14=Island Breeze
TTITLE15=Study in Blue
TTITLE16=What Might Have Been
TTITLE17=A Nasty Bit of Blues
TTITLE18=Estancia
TTITLE19=The Stroke of Midnight
TTITLE20=Night Shot
EXTD=YEAR: 2000
EXTT0=
EXTT1=
EXTT2=
EXTT3=
EXTT4=
EXTT5=
EXTT6=
EXTT7=
EXTT8=
EXTT9=
EXTT10=
EXTT11=
EXTT12=
EXTT13=
EXTT14=
EXTT15=
EXTT16=
EXTT17=
EXTT18=
EXTT19=
EXTT20=
PLAYORDER=
